<svg width="32.000000" height="32.000000" viewBox="0 0 32 32" fill="none" xmlns="http://www.w3.org/2000/svg" xmlns:xlink="http://www.w3.org/1999/xlink">
	<desc>
			Created with Pixso.
	</desc>
	<defs/>
	<rect id="Rectangle 45" x="0.500000" y="0.500000" rx="4.000000" width="31.000000" height="31.000000" stroke="#46A358" stroke-opacity="0.200000" stroke-width="1.000000"/>
	<path id="Union" d="M25.6659 16.0192C25.6659 11.1971 25.277 9.40833 22.2438 9.17505C19.4439 8.94165 13.222 8.94165 10.4221 9.17505C7.38889 9.40833 7 11.1971 7 16.0192C7 20.8412 7.38889 22.63 10.4221 22.8633C13.222 23.0189 19.4439 23.0189 22.2438 22.8633C25.277 22.7078 25.6659 20.8412 25.6659 16.0192ZM11.3244 13.3568Q11.3241 13.3606 11.3237 13.3644Q11.236 14.2526 11.236 16.0192Q11.236 17.7793 11.3231 18.6674Q13.166 18.7439 16.3329 18.7439Q19.4464 18.7439 21.3441 18.6656Q21.4299 17.7687 21.4299 16.0192Q21.4299 14.2524 21.3422 13.3644L21.3415 13.3571Q20.5589 13.3086 19.4882 13.2781Q18.0175 13.2361 16.3329 13.2361Q14.6484 13.2361 13.1777 13.2781Q12.0974 13.309 11.3244 13.3568ZM13.9997 16.0192C13.9997 14.5898 15.5039 13.6603 16.7823 14.2994C18.1994 15.0081 18.1994 17.0303 16.7823 17.7389C15.5039 18.3781 13.9997 17.4485 13.9997 16.0192Z" clip-rule="evenodd" fill="#46A358" fill-opacity="0.600000" fill-rule="evenodd"/>
</svg>
